<mxfile modified="2022-05-04T22:52:18.597Z" host="app.diagrams.net" agent="5.0 (Windows NT 10.0; Win64; x64) AppleWebKit/537.36 (KHTML, like Gecko) Chrome/100.0.4896.127 Safari/537.36 Edg/100.0.1185.50" etag="sc7Kmvs23k2Z_JSg8q1A" compressed="false" version="17.5.0" type="google">
  <diagram id="PT_WVmzZQ5meAS88Afmj" name="Deployment/Environments">
    <mxGraphModel grid="1" page="1" gridSize="10" guides="1" tooltips="1" connect="1" arrows="1" fold="1" pageScale="1" pageWidth="827" pageHeight="1169" math="0" shadow="0">
      <root>
        <mxCell id="_eyxtNxFQS-XamgkCKur-0" />
        <mxCell id="_eyxtNxFQS-XamgkCKur-1" value="About" style="" parent="_eyxtNxFQS-XamgkCKur-0" />
        <mxCell id="ofFkYoNgK9d1twdwnaEG-0" value="&lt;b&gt;Production Backup Environments&lt;/b&gt;" style="rounded=1;whiteSpace=wrap;html=1;shadow=0;glass=0;comic=0;strokeColor=#FF3333;fillColor=none;fontSize=10;align=left;fontColor=#333333;recursiveResize=0;container=1;collapsible=0;verticalAlign=top;spacing=5;spacingTop=-5;absoluteArcSize=1;strokeWidth=4;" vertex="1" parent="_eyxtNxFQS-XamgkCKur-1">
          <mxGeometry x="350" y="470" width="220" height="250" as="geometry" />
        </mxCell>
        <mxCell id="G9RkhDbFaqI0d4GhjD9O-1" value="Configuration" style="rounded=0;whiteSpace=wrap;html=1;shadow=0;glass=0;comic=0;strokeColor=#666666;fontSize=10;align=center;fontColor=#333333;recursiveResize=0;container=1;collapsible=0;fillColor=none;" vertex="1" parent="ofFkYoNgK9d1twdwnaEG-0">
          <mxGeometry x="120" y="40" width="60" height="40" as="geometry" />
        </mxCell>
        <mxCell id="ofFkYoNgK9d1twdwnaEG-18" value="&lt;b&gt;Non-Production Secure Data Env&lt;/b&gt;" style="rounded=1;whiteSpace=wrap;html=1;shadow=0;glass=0;comic=0;strokeColor=#3333FF;fillColor=none;fontSize=12;align=left;fontColor=#333333;recursiveResize=0;container=1;collapsible=0;verticalAlign=top;spacing=2;spacingTop=-5;absoluteArcSize=1;strokeWidth=2;" vertex="1" parent="_eyxtNxFQS-XamgkCKur-1">
          <mxGeometry x="510" y="200" width="80" height="260" as="geometry" />
        </mxCell>
        <mxCell id="y03_ueL-zCyggt_vuwU3-13" value="BACKUPS" style="rounded=0;whiteSpace=wrap;html=1;shadow=0;glass=0;comic=0;strokeColor=#CCCCCC;fillColor=none;fontSize=10;align=center;fontColor=#333333;recursiveResize=0;container=1;collapsible=0;" vertex="1" parent="ofFkYoNgK9d1twdwnaEG-18">
          <mxGeometry x="9.999999999999886" y="180" width="60" height="40" as="geometry" />
        </mxCell>
        <mxCell id="G9RkhDbFaqI0d4GhjD9O-0" value="Configuration" style="rounded=0;whiteSpace=wrap;html=1;shadow=0;glass=0;comic=0;strokeColor=#CCCCCC;fillColor=none;fontSize=10;align=center;fontColor=#333333;recursiveResize=0;container=1;collapsible=0;" vertex="1" parent="ofFkYoNgK9d1twdwnaEG-18">
          <mxGeometry x="9.999999999999886" y="100" width="60" height="40" as="geometry" />
        </mxCell>
        <mxCell id="y03_ueL-zCyggt_vuwU3-0" value="&lt;b&gt;Non-Production Data Environments&lt;/b&gt;" style="rounded=1;whiteSpace=wrap;html=1;shadow=0;glass=0;comic=0;strokeColor=#3333FF;fillColor=none;fontSize=12;align=left;fontColor=#333333;recursiveResize=0;container=1;collapsible=0;verticalAlign=top;spacing=2;spacingTop=-5;absoluteArcSize=1;strokeWidth=2;" vertex="1" parent="_eyxtNxFQS-XamgkCKur-1">
          <mxGeometry x="120" y="200" width="380" height="260" as="geometry" />
        </mxCell>
        <mxCell id="y03_ueL-zCyggt_vuwU3-1" style="edgeStyle=elbowEdgeStyle;rounded=1;orthogonalLoop=1;jettySize=auto;elbow=vertical;html=1;fontSize=10;exitX=0.5;exitY=0;exitDx=0;exitDy=0;" edge="1" parent="y03_ueL-zCyggt_vuwU3-0" source="y03_ueL-zCyggt_vuwU3-6" target="y03_ueL-zCyggt_vuwU3-27">
          <mxGeometry relative="1" as="geometry">
            <mxPoint x="310" y="80" as="sourcePoint" />
          </mxGeometry>
        </mxCell>
        <mxCell id="y03_ueL-zCyggt_vuwU3-2" style="edgeStyle=elbowEdgeStyle;rounded=1;orthogonalLoop=1;jettySize=auto;elbow=vertical;html=1;fontSize=10;" edge="1" parent="y03_ueL-zCyggt_vuwU3-0" source="y03_ueL-zCyggt_vuwU3-6" target="y03_ueL-zCyggt_vuwU3-28">
          <mxGeometry relative="1" as="geometry" />
        </mxCell>
        <mxCell id="y03_ueL-zCyggt_vuwU3-3" style="edgeStyle=elbowEdgeStyle;rounded=1;orthogonalLoop=1;jettySize=auto;elbow=vertical;html=1;entryX=0.5;entryY=1;entryDx=0;entryDy=0;fontSize=10;" edge="1" parent="y03_ueL-zCyggt_vuwU3-0" source="y03_ueL-zCyggt_vuwU3-6" target="y03_ueL-zCyggt_vuwU3-29">
          <mxGeometry relative="1" as="geometry" />
        </mxCell>
        <mxCell id="y03_ueL-zCyggt_vuwU3-4" style="edgeStyle=elbowEdgeStyle;rounded=1;orthogonalLoop=1;jettySize=auto;elbow=vertical;html=1;entryX=0.5;entryY=1;entryDx=0;entryDy=0;fontSize=10;" edge="1" parent="y03_ueL-zCyggt_vuwU3-0" source="y03_ueL-zCyggt_vuwU3-6" target="y03_ueL-zCyggt_vuwU3-30">
          <mxGeometry relative="1" as="geometry">
            <Array as="points" />
          </mxGeometry>
        </mxCell>
        <mxCell id="y03_ueL-zCyggt_vuwU3-5" style="edgeStyle=elbowEdgeStyle;rounded=1;orthogonalLoop=1;jettySize=auto;elbow=vertical;html=1;fontSize=10;" edge="1" parent="y03_ueL-zCyggt_vuwU3-0" source="y03_ueL-zCyggt_vuwU3-6" target="y03_ueL-zCyggt_vuwU3-26">
          <mxGeometry relative="1" as="geometry" />
        </mxCell>
        <mxCell id="y03_ueL-zCyggt_vuwU3-6" value="SHARED CLOUD SERVICES" style="rounded=0;whiteSpace=wrap;html=1;shadow=0;glass=0;comic=0;strokeColor=#666666;fontSize=12;align=center;fontColor=#333333;recursiveResize=0;container=1;collapsible=0;fillColor=none;" vertex="1" parent="y03_ueL-zCyggt_vuwU3-0">
          <mxGeometry x="9.999999999999886" y="180" width="80" height="40" as="geometry" />
        </mxCell>
        <mxCell id="y03_ueL-zCyggt_vuwU3-7" style="edgeStyle=elbowEdgeStyle;rounded=1;orthogonalLoop=1;jettySize=auto;elbow=vertical;html=1;fontSize=10;" edge="1" parent="y03_ueL-zCyggt_vuwU3-0" source="y03_ueL-zCyggt_vuwU3-12" target="y03_ueL-zCyggt_vuwU3-30">
          <mxGeometry relative="1" as="geometry" />
        </mxCell>
        <mxCell id="y03_ueL-zCyggt_vuwU3-8" style="edgeStyle=elbowEdgeStyle;rounded=1;orthogonalLoop=1;jettySize=auto;elbow=vertical;html=1;entryX=0.5;entryY=0;entryDx=0;entryDy=0;fontSize=10;" edge="1" parent="y03_ueL-zCyggt_vuwU3-0" source="y03_ueL-zCyggt_vuwU3-12" target="y03_ueL-zCyggt_vuwU3-29">
          <mxGeometry relative="1" as="geometry" />
        </mxCell>
        <mxCell id="y03_ueL-zCyggt_vuwU3-9" style="edgeStyle=elbowEdgeStyle;rounded=1;orthogonalLoop=1;jettySize=auto;elbow=vertical;html=1;entryX=0.5;entryY=0;entryDx=0;entryDy=0;fontSize=10;" edge="1" parent="y03_ueL-zCyggt_vuwU3-0" source="y03_ueL-zCyggt_vuwU3-12" target="y03_ueL-zCyggt_vuwU3-28">
          <mxGeometry relative="1" as="geometry" />
        </mxCell>
        <mxCell id="y03_ueL-zCyggt_vuwU3-10" style="edgeStyle=elbowEdgeStyle;rounded=1;orthogonalLoop=1;jettySize=auto;elbow=vertical;html=1;entryX=0.5;entryY=0;entryDx=0;entryDy=0;fontSize=10;" edge="1" parent="y03_ueL-zCyggt_vuwU3-0" source="y03_ueL-zCyggt_vuwU3-12" target="y03_ueL-zCyggt_vuwU3-27">
          <mxGeometry relative="1" as="geometry" />
        </mxCell>
        <mxCell id="y03_ueL-zCyggt_vuwU3-11" style="edgeStyle=elbowEdgeStyle;rounded=1;orthogonalLoop=1;jettySize=auto;elbow=vertical;html=1;fontSize=10;" edge="1" parent="y03_ueL-zCyggt_vuwU3-0" source="y03_ueL-zCyggt_vuwU3-12" target="y03_ueL-zCyggt_vuwU3-26">
          <mxGeometry relative="1" as="geometry" />
        </mxCell>
        <mxCell id="y03_ueL-zCyggt_vuwU3-12" value="INTEGRATION&lt;br style=&quot;font-size: 12px;&quot;&gt;(to Legacy)" style="rounded=0;whiteSpace=wrap;html=1;shadow=0;glass=0;comic=0;strokeColor=#666666;fontSize=12;align=center;fontColor=#333333;recursiveResize=0;container=1;collapsible=0;fillColor=none;" vertex="1" parent="y03_ueL-zCyggt_vuwU3-0">
          <mxGeometry x="9.999999999999886" y="30" width="80" height="40" as="geometry" />
        </mxCell>
        <mxCell id="y03_ueL-zCyggt_vuwU3-14" style="edgeStyle=elbowEdgeStyle;rounded=1;orthogonalLoop=1;jettySize=auto;elbow=vertical;html=1;entryX=0.5;entryY=1;entryDx=0;entryDy=0;fontSize=10;" edge="1" parent="y03_ueL-zCyggt_vuwU3-0" source="y03_ueL-zCyggt_vuwU3-21" target="y03_ueL-zCyggt_vuwU3-26">
          <mxGeometry relative="1" as="geometry" />
        </mxCell>
        <mxCell id="y03_ueL-zCyggt_vuwU3-15" style="edgeStyle=elbowEdgeStyle;rounded=1;orthogonalLoop=1;jettySize=auto;elbow=vertical;html=1;entryX=0.5;entryY=1;entryDx=0;entryDy=0;fontSize=10;" edge="1" parent="y03_ueL-zCyggt_vuwU3-0" source="y03_ueL-zCyggt_vuwU3-21" target="y03_ueL-zCyggt_vuwU3-27">
          <mxGeometry relative="1" as="geometry" />
        </mxCell>
        <mxCell id="y03_ueL-zCyggt_vuwU3-16" style="edgeStyle=elbowEdgeStyle;rounded=1;orthogonalLoop=1;jettySize=auto;elbow=vertical;html=1;entryX=0.5;entryY=1;entryDx=0;entryDy=0;fontSize=10;" edge="1" parent="y03_ueL-zCyggt_vuwU3-0" source="y03_ueL-zCyggt_vuwU3-21" target="y03_ueL-zCyggt_vuwU3-28">
          <mxGeometry relative="1" as="geometry" />
        </mxCell>
        <mxCell id="y03_ueL-zCyggt_vuwU3-17" style="edgeStyle=elbowEdgeStyle;rounded=1;orthogonalLoop=1;jettySize=auto;elbow=vertical;html=1;entryX=0.5;entryY=1;entryDx=0;entryDy=0;fontSize=10;" edge="1" parent="y03_ueL-zCyggt_vuwU3-0" source="y03_ueL-zCyggt_vuwU3-21" target="y03_ueL-zCyggt_vuwU3-29">
          <mxGeometry relative="1" as="geometry" />
        </mxCell>
        <mxCell id="y03_ueL-zCyggt_vuwU3-18" style="edgeStyle=elbowEdgeStyle;rounded=1;orthogonalLoop=1;jettySize=auto;elbow=vertical;html=1;entryX=0.5;entryY=1;entryDx=0;entryDy=0;fontSize=10;" edge="1" parent="y03_ueL-zCyggt_vuwU3-0" source="y03_ueL-zCyggt_vuwU3-21" target="y03_ueL-zCyggt_vuwU3-30">
          <mxGeometry relative="1" as="geometry" />
        </mxCell>
        <mxCell id="y03_ueL-zCyggt_vuwU3-21" value="SHARED DATA&amp;nbsp;" style="rounded=0;whiteSpace=wrap;html=1;shadow=0;glass=0;comic=0;strokeColor=#666666;fontSize=10;align=center;fontColor=#333333;recursiveResize=0;container=1;collapsible=0;fillColor=none;" vertex="1" parent="y03_ueL-zCyggt_vuwU3-0">
          <mxGeometry x="300" y="180" width="60" height="40" as="geometry" />
        </mxCell>
        <mxCell id="y03_ueL-zCyggt_vuwU3-22" value="&lt;p style=&quot;line-height: 100%&quot;&gt;Shared confidential storage, and cloud services subscriptions costly to develop per environment.&lt;/p&gt;" style="shape=note;whiteSpace=wrap;html=1;backgroundOutline=1;darkOpacity=0.05;strokeColor=#B3B3B3;strokeWidth=1;fontSize=10;size=16;" vertex="1" parent="y03_ueL-zCyggt_vuwU3-0">
          <mxGeometry x="100" y="170" width="80" height="80" as="geometry" />
        </mxCell>
        <mxCell id="y03_ueL-zCyggt_vuwU3-23" value="&lt;p style=&quot;line-height: 100%&quot;&gt;Shared data environment outside of deletable service environment. Allows for hot swapping.&lt;/p&gt;" style="shape=note;whiteSpace=wrap;html=1;backgroundOutline=1;darkOpacity=0.05;strokeColor=#B3B3B3;strokeWidth=1;fontSize=10;size=16;" vertex="1" parent="y03_ueL-zCyggt_vuwU3-0">
          <mxGeometry x="200" y="170" width="90" height="80" as="geometry" />
        </mxCell>
        <mxCell id="y03_ueL-zCyggt_vuwU3-24" value="Syncing with onprem and legacy services that are not suitable for Infrastructure as Code deployment (eg: SAML)" style="shape=note;whiteSpace=wrap;html=1;backgroundOutline=1;darkOpacity=0.05;strokeColor=#B3B3B3;strokeWidth=1;fontSize=8;size=16;" vertex="1" parent="y03_ueL-zCyggt_vuwU3-0">
          <mxGeometry x="100" y="30" width="220" height="50" as="geometry" />
        </mxCell>
        <mxCell id="y03_ueL-zCyggt_vuwU3-25" value="" style="rounded=1;whiteSpace=wrap;html=1;absoluteArcSize=1;dashed=1;strokeColor=#3333FF;fillColor=none;container=1;collapsible=0;recursiveResize=0;" vertex="1" parent="y03_ueL-zCyggt_vuwU3-0">
          <mxGeometry x="10" y="90" width="360" height="60" as="geometry" />
        </mxCell>
        <mxCell id="y03_ueL-zCyggt_vuwU3-26" value="Work&lt;br style=&quot;font-size: 12px;&quot;&gt;stations" style="rounded=0;whiteSpace=wrap;html=1;shadow=0;glass=0;comic=0;strokeColor=#666666;fontSize=12;align=center;fontColor=#333333;recursiveResize=0;container=1;collapsible=0;fillColor=none;" vertex="1" parent="y03_ueL-zCyggt_vuwU3-25">
          <mxGeometry x="10.072222222222107" y="10" width="60.666666666666664" height="40" as="geometry" />
        </mxCell>
        <mxCell id="y03_ueL-zCyggt_vuwU3-27" value="BT" style="rounded=0;whiteSpace=wrap;html=1;shadow=0;glass=0;comic=0;strokeColor=#666666;fontSize=12;align=center;fontColor=#333333;recursiveResize=0;container=1;collapsible=0;fillColor=none;" vertex="1" parent="y03_ueL-zCyggt_vuwU3-25">
          <mxGeometry x="79.84999999999988" y="10" width="60.666666666666664" height="40" as="geometry" />
        </mxCell>
        <mxCell id="y03_ueL-zCyggt_vuwU3-28" value="DT" style="rounded=0;whiteSpace=wrap;html=1;shadow=0;glass=0;comic=0;strokeColor=#666666;fontSize=12;align=center;fontColor=#333333;recursiveResize=0;container=1;collapsible=0;fillColor=none;" vertex="1" parent="y03_ueL-zCyggt_vuwU3-25">
          <mxGeometry x="150.12777777777765" y="10" width="60.666666666666664" height="40" as="geometry" />
        </mxCell>
        <mxCell id="y03_ueL-zCyggt_vuwU3-29" value="ST" style="rounded=0;whiteSpace=wrap;html=1;shadow=0;glass=0;comic=0;strokeColor=#666666;fontSize=12;align=center;fontColor=#333333;recursiveResize=0;container=1;collapsible=0;fillColor=none;" vertex="1" parent="y03_ueL-zCyggt_vuwU3-25">
          <mxGeometry x="219.90555555555542" y="10" width="60.666666666666664" height="40" as="geometry" />
        </mxCell>
        <mxCell id="y03_ueL-zCyggt_vuwU3-30" value="UT" style="rounded=0;whiteSpace=wrap;html=1;shadow=0;glass=0;comic=0;strokeColor=#666666;fontSize=12;align=center;fontColor=#333333;recursiveResize=0;container=1;collapsible=0;fillColor=none;" vertex="1" parent="y03_ueL-zCyggt_vuwU3-25">
          <mxGeometry x="290.1833333333332" y="10" width="60.666666666666664" height="40" as="geometry" />
        </mxCell>
        <mxCell id="y03_ueL-zCyggt_vuwU3-34" value="&lt;b&gt;Production Data Environments&lt;/b&gt;" style="rounded=1;whiteSpace=wrap;html=1;shadow=0;glass=0;comic=0;strokeColor=#FF3333;fillColor=none;fontSize=10;align=left;fontColor=#333333;recursiveResize=0;container=1;collapsible=0;verticalAlign=top;spacing=5;spacingTop=-5;absoluteArcSize=1;strokeWidth=4;" vertex="1" parent="_eyxtNxFQS-XamgkCKur-1">
          <mxGeometry x="120" y="470" width="220" height="250" as="geometry" />
        </mxCell>
        <mxCell id="y03_ueL-zCyggt_vuwU3-35" value="PROD" style="rounded=0;whiteSpace=wrap;html=1;shadow=0;glass=0;comic=0;strokeColor=#666666;fontSize=10;align=center;fontColor=#333333;recursiveResize=0;container=1;collapsible=0;fillColor=none;" vertex="1" parent="y03_ueL-zCyggt_vuwU3-34">
          <mxGeometry x="80" y="110" width="60" height="40" as="geometry" />
        </mxCell>
        <mxCell id="y03_ueL-zCyggt_vuwU3-36" value="BACKUPS" style="rounded=0;whiteSpace=wrap;html=1;shadow=0;glass=0;comic=0;strokeColor=#666666;fontSize=10;align=center;fontColor=#333333;recursiveResize=0;container=1;collapsible=0;fillColor=none;" vertex="1" parent="y03_ueL-zCyggt_vuwU3-34">
          <mxGeometry x="350" y="190" width="60" height="40" as="geometry" />
        </mxCell>
        <mxCell id="y03_ueL-zCyggt_vuwU3-37" value="HOTSWAP&lt;br&gt;(optional)" style="rounded=0;whiteSpace=wrap;html=1;shadow=0;glass=0;comic=0;strokeColor=#666666;fontSize=10;align=center;fontColor=#333333;recursiveResize=0;container=1;collapsible=0;fillColor=none;" vertex="1" parent="y03_ueL-zCyggt_vuwU3-34">
          <mxGeometry x="10" y="110" width="60" height="40" as="geometry" />
        </mxCell>
        <mxCell id="y03_ueL-zCyggt_vuwU3-38" style="edgeStyle=elbowEdgeStyle;rounded=1;orthogonalLoop=1;jettySize=auto;html=1;entryX=0.5;entryY=1;entryDx=0;entryDy=0;fontSize=10;elbow=vertical;exitX=0.5;exitY=0;exitDx=0;exitDy=0;" edge="1" parent="y03_ueL-zCyggt_vuwU3-34" source="y03_ueL-zCyggt_vuwU3-40" target="y03_ueL-zCyggt_vuwU3-35">
          <mxGeometry relative="1" as="geometry">
            <Array as="points">
              <mxPoint x="80" y="170" />
            </Array>
          </mxGeometry>
        </mxCell>
        <mxCell id="y03_ueL-zCyggt_vuwU3-39" style="edgeStyle=elbowEdgeStyle;rounded=1;orthogonalLoop=1;jettySize=auto;elbow=vertical;html=1;fontSize=10;" edge="1" parent="y03_ueL-zCyggt_vuwU3-34" source="y03_ueL-zCyggt_vuwU3-40" target="y03_ueL-zCyggt_vuwU3-37">
          <mxGeometry relative="1" as="geometry" />
        </mxCell>
        <mxCell id="y03_ueL-zCyggt_vuwU3-40" value="SHARED CLOUD SERVICES" style="rounded=0;whiteSpace=wrap;html=1;shadow=0;glass=0;comic=0;strokeColor=#666666;fontSize=10;align=center;fontColor=#333333;recursiveResize=0;container=1;collapsible=0;fillColor=none;" vertex="1" parent="y03_ueL-zCyggt_vuwU3-34">
          <mxGeometry x="10" y="190" width="60" height="40" as="geometry" />
        </mxCell>
        <mxCell id="y03_ueL-zCyggt_vuwU3-41" style="edgeStyle=elbowEdgeStyle;rounded=1;orthogonalLoop=1;jettySize=auto;elbow=vertical;html=1;fontSize=10;" edge="1" parent="y03_ueL-zCyggt_vuwU3-34" source="y03_ueL-zCyggt_vuwU3-43" target="y03_ueL-zCyggt_vuwU3-37">
          <mxGeometry relative="1" as="geometry" />
        </mxCell>
        <mxCell id="y03_ueL-zCyggt_vuwU3-42" style="edgeStyle=elbowEdgeStyle;rounded=1;orthogonalLoop=1;jettySize=auto;elbow=vertical;html=1;entryX=0.5;entryY=0;entryDx=0;entryDy=0;fontSize=10;" edge="1" parent="y03_ueL-zCyggt_vuwU3-34" source="y03_ueL-zCyggt_vuwU3-43" target="y03_ueL-zCyggt_vuwU3-35">
          <mxGeometry relative="1" as="geometry" />
        </mxCell>
        <mxCell id="y03_ueL-zCyggt_vuwU3-43" value="INTEGRATION (to lLegacy)" style="rounded=0;whiteSpace=wrap;html=1;shadow=0;glass=0;comic=0;strokeColor=#666666;fontSize=10;align=center;fontColor=#333333;recursiveResize=0;container=1;collapsible=0;fillColor=none;" vertex="1" parent="y03_ueL-zCyggt_vuwU3-34">
          <mxGeometry x="9.999999999999886" y="40" width="70" height="40" as="geometry" />
        </mxCell>
        <mxCell id="y03_ueL-zCyggt_vuwU3-44" style="edgeStyle=elbowEdgeStyle;rounded=1;orthogonalLoop=1;jettySize=auto;elbow=vertical;html=1;entryX=0.5;entryY=1;entryDx=0;entryDy=0;fontSize=10;" edge="1" parent="y03_ueL-zCyggt_vuwU3-34" source="y03_ueL-zCyggt_vuwU3-46" target="y03_ueL-zCyggt_vuwU3-37">
          <mxGeometry relative="1" as="geometry" />
        </mxCell>
        <mxCell id="y03_ueL-zCyggt_vuwU3-45" style="edgeStyle=elbowEdgeStyle;rounded=1;orthogonalLoop=1;jettySize=auto;elbow=vertical;html=1;fontSize=10;" edge="1" parent="y03_ueL-zCyggt_vuwU3-34" source="y03_ueL-zCyggt_vuwU3-46" target="y03_ueL-zCyggt_vuwU3-35">
          <mxGeometry relative="1" as="geometry" />
        </mxCell>
        <mxCell id="y03_ueL-zCyggt_vuwU3-46" value="SHARED DATA&amp;nbsp;" style="rounded=0;whiteSpace=wrap;html=1;shadow=0;glass=0;comic=0;strokeColor=#666666;fontSize=10;align=center;fontColor=#333333;recursiveResize=0;container=1;collapsible=0;fillColor=none;" vertex="1" parent="y03_ueL-zCyggt_vuwU3-34">
          <mxGeometry x="130" y="190" width="60" height="40" as="geometry" />
        </mxCell>
        <mxCell id="y03_ueL-zCyggt_vuwU3-47" value="save &amp;amp; &lt;br style=&quot;font-size: 8px;&quot;&gt;restore" style="edgeStyle=elbowEdgeStyle;rounded=1;orthogonalLoop=1;jettySize=auto;elbow=vertical;html=1;fontSize=8;startArrow=classic;startFill=1;dashed=1;entryX=0;entryY=0.75;entryDx=0;entryDy=0;exitX=1;exitY=0.75;exitDx=0;exitDy=0;" edge="1" parent="y03_ueL-zCyggt_vuwU3-34" source="y03_ueL-zCyggt_vuwU3-46" target="y03_ueL-zCyggt_vuwU3-36">
          <mxGeometry y="-10" relative="1" as="geometry">
            <mxPoint x="310" y="210" as="sourcePoint" />
            <mxPoint x="560" y="-180" as="targetPoint" />
            <Array as="points" />
            <mxPoint as="offset" />
          </mxGeometry>
        </mxCell>
        <mxCell id="y03_ueL-zCyggt_vuwU3-51" value="&lt;b&gt;Production Data Monitoring &lt;br&gt;Environments&lt;/b&gt;" style="rounded=1;whiteSpace=wrap;html=1;shadow=0;glass=0;comic=0;strokeColor=#FF3333;fillColor=none;fontSize=10;align=left;fontColor=#333333;recursiveResize=0;container=1;collapsible=0;verticalAlign=top;spacing=5;spacingTop=-5;absoluteArcSize=1;strokeWidth=4;" vertex="1" parent="_eyxtNxFQS-XamgkCKur-1">
          <mxGeometry x="580" y="470" width="100" height="250" as="geometry" />
        </mxCell>
        <mxCell id="y03_ueL-zCyggt_vuwU3-52" value="SCOM/etc. based Central Logging" style="rounded=0;whiteSpace=wrap;html=1;shadow=0;glass=0;comic=0;strokeColor=#CCCCCC;fillColor=none;fontSize=10;align=center;fontColor=#333333;recursiveResize=0;container=1;collapsible=0;" vertex="1" parent="y03_ueL-zCyggt_vuwU3-51">
          <mxGeometry x="9.999999999999886" y="40" width="80" height="40" as="geometry" />
        </mxCell>
        <mxCell id="y03_ueL-zCyggt_vuwU3-53" value="Monitoring" style="rounded=0;whiteSpace=wrap;html=1;shadow=0;glass=0;comic=0;strokeColor=#CCCCCC;fillColor=none;fontSize=10;align=center;fontColor=#333333;recursiveResize=0;container=1;collapsible=0;" vertex="1" parent="y03_ueL-zCyggt_vuwU3-51">
          <mxGeometry x="9.999999999999886" y="130" width="80" height="40" as="geometry" />
        </mxCell>
        <mxCell id="y03_ueL-zCyggt_vuwU3-54" value="retrieve" style="edgeStyle=elbowEdgeStyle;rounded=1;orthogonalLoop=1;jettySize=auto;elbow=vertical;html=1;fontSize=8;startArrow=none;startFill=0;dashed=1;exitX=0.25;exitY=1;exitDx=0;exitDy=0;entryX=0.75;entryY=0;entryDx=0;entryDy=0;" edge="1" parent="_eyxtNxFQS-XamgkCKur-1" source="y03_ueL-zCyggt_vuwU3-52" target="y03_ueL-zCyggt_vuwU3-35">
          <mxGeometry relative="1" as="geometry">
            <mxPoint x="700" y="670" as="sourcePoint" />
            <mxPoint x="770" y="730" as="targetPoint" />
            <Array as="points" />
            <mxPoint as="offset" />
          </mxGeometry>
        </mxCell>
        <mxCell id="y03_ueL-zCyggt_vuwU3-55" value="retrieve" style="rounded=1;orthogonalLoop=1;jettySize=auto;html=1;fontSize=8;startArrow=none;startFill=0;dashed=1;entryX=0.75;entryY=0;entryDx=0;entryDy=0;exitX=0.5;exitY=1;exitDx=0;exitDy=0;" edge="1" parent="_eyxtNxFQS-XamgkCKur-1" source="y03_ueL-zCyggt_vuwU3-52" target="y03_ueL-zCyggt_vuwU3-46">
          <mxGeometry y="-5" relative="1" as="geometry">
            <mxPoint x="920" y="650" as="sourcePoint" />
            <mxPoint x="770" y="610" as="targetPoint" />
            <mxPoint as="offset" />
            <Array as="points">
              <mxPoint x="630" y="580" />
              <mxPoint x="295" y="580" />
            </Array>
          </mxGeometry>
        </mxCell>
        <mxCell id="y03_ueL-zCyggt_vuwU3-56" value="retrieve" style="edgeStyle=elbowEdgeStyle;rounded=1;orthogonalLoop=1;jettySize=auto;html=1;fontSize=8;startArrow=none;startFill=0;dashed=1;entryX=1;entryY=0.25;entryDx=0;entryDy=0;exitX=0;exitY=0.75;exitDx=0;exitDy=0;" edge="1" parent="_eyxtNxFQS-XamgkCKur-1" source="y03_ueL-zCyggt_vuwU3-53" target="y03_ueL-zCyggt_vuwU3-46">
          <mxGeometry y="5" relative="1" as="geometry">
            <mxPoint x="750" y="740" as="sourcePoint" />
            <mxPoint x="770" y="610" as="targetPoint" />
            <mxPoint x="5" y="-5" as="offset" />
            <Array as="points">
              <mxPoint x="450" y="650" />
            </Array>
          </mxGeometry>
        </mxCell>
        <mxCell id="y03_ueL-zCyggt_vuwU3-57" value="retrieve" style="edgeStyle=elbowEdgeStyle;rounded=1;orthogonalLoop=1;jettySize=auto;html=1;fontSize=8;startArrow=none;startFill=0;dashed=1;entryX=1;entryY=0.75;entryDx=0;entryDy=0;exitX=0;exitY=0.25;exitDx=0;exitDy=0;" edge="1" parent="_eyxtNxFQS-XamgkCKur-1" source="y03_ueL-zCyggt_vuwU3-53" target="y03_ueL-zCyggt_vuwU3-35">
          <mxGeometry x="0.4118" relative="1" as="geometry">
            <mxPoint x="770" y="620" as="sourcePoint" />
            <mxPoint x="720" y="680" as="targetPoint" />
            <mxPoint as="offset" />
            <Array as="points">
              <mxPoint x="380" y="590" />
            </Array>
          </mxGeometry>
        </mxCell>
        <mxCell id="y03_ueL-zCyggt_vuwU3-58" value="retrieve" style="edgeStyle=elbowEdgeStyle;rounded=1;orthogonalLoop=1;jettySize=auto;html=1;fontSize=8;startArrow=none;startFill=0;dashed=1;entryX=1;entryY=0.5;entryDx=0;entryDy=0;exitX=0.25;exitY=1;exitDx=0;exitDy=0;" edge="1" parent="_eyxtNxFQS-XamgkCKur-1" source="y03_ueL-zCyggt_vuwU3-53" target="y03_ueL-zCyggt_vuwU3-36">
          <mxGeometry y="5" relative="1" as="geometry">
            <mxPoint x="619.8620689655172" y="640.2413793103449" as="sourcePoint" />
            <mxPoint x="459.8620689655172" y="680.2413793103449" as="targetPoint" />
            <mxPoint x="5" y="-5" as="offset" />
            <Array as="points">
              <mxPoint x="610" y="670" />
            </Array>
          </mxGeometry>
        </mxCell>
        <UserObject label="" tooltip="ABOUT&#xa;&#xa;Multiple environments are needed to provide multiple chances to ensure system logic and data are correct before it gets in front of end users.&#xa;&#xa;Developers work on workstations, and as needed, access shared cloud services.&#xa;When they commit their branch of the code to the ALM&#39;s managed code repository, the ALM&#39;s automated build pipeline is triggered, which checks out the code, builds it, statically tests it, and if that passes, deploys it to a Build Test (BT) environment for automated Security and Functional Testing. If this passes as well, the code is merged with the shared Dev branch, then the package is optionally deployed to an Dev Test (DT) environment for testing by Devs only. Or it is progressed directly to an System Test (ST) environment for ad-hoc manual exploratory testing by Testers.&#xa;&#xa;Note that this environment is NOT for Manual Script or Regression Testing, but for finding new conditions to write Test Cases for, which are to be turned into Automated Tests to be run by the Build Engine the next time code is committed. &#xa;&#xa;If ST is comfortable with the quality of the logic, they progress the system through to a User Testing (UT) environment, where representative end users can manually use the system, using Test data. It is a grave security error to use production data, even if obfuscated.&#xa;&#xa;With User acceptance, the system can be progressed to being deployed into a Production Data environment. If the system can afford to be taken offline, it can be deployed directly to Production. If there is a need to minimize the down time, consider deploying to a HOTSWAP environment first, taking the database offline, updating it, swapping HOTSWAP and PROD, then bringing the database back online. If the system needs to be continually available, additional processes are required (it&#39;s not just a deployment issue) but that is beyond the scope of this diagram&#39;s notes.&#xa;&#xa;&#xa;&#xa;The use of Shared Database environment helps ensure that databases are not deleted if the system is deleted.&#xa;&#xa;&#xa;&#xa;It is not the responsibility of a System to push data for central Logging and Monitoring. Separation of Concerns dictates that it is up to external services to request access, and monitor and pull data as necessary." id="pr76zT4M5GT6HG7u0WNJ-0">
          <mxCell style="shape=image;html=1;verticalAlign=top;verticalLabelPosition=bottom;labelBackgroundColor=#ffffff;imageAspect=0;aspect=fixed;image=https://cdn1.iconfinder.com/data/icons/hawcons/32/699014-icon-28-information-128.png;shadow=0;dashed=0;fontFamily=Helvetica;fontSize=12;fontColor=#000000;align=center;strokeColor=#000000;fillColor=#505050;dashPattern=1 1;" vertex="1" parent="_eyxtNxFQS-XamgkCKur-1">
            <mxGeometry x="660" y="740" width="20" height="20" as="geometry" />
          </mxCell>
        </UserObject>
        <mxCell id="ofFkYoNgK9d1twdwnaEG-52" value="Non-Prod Monitoring" style="rounded=1;whiteSpace=wrap;html=1;shadow=0;glass=0;comic=0;strokeColor=#3333FF;fillColor=none;fontSize=12;align=left;fontColor=#333333;recursiveResize=0;container=1;collapsible=0;verticalAlign=top;spacing=2;spacingTop=-5;absoluteArcSize=1;strokeWidth=2;fontStyle=1" vertex="1" parent="_eyxtNxFQS-XamgkCKur-1">
          <mxGeometry x="600" y="200" width="80" height="260" as="geometry" />
        </mxCell>
        <mxCell id="y03_ueL-zCyggt_vuwU3-32" value="IT" style="rounded=0;whiteSpace=wrap;html=1;shadow=0;glass=0;comic=0;strokeColor=#666666;fontSize=10;align=center;fontColor=#333333;recursiveResize=0;container=1;collapsible=0;fillColor=none;" vertex="1" parent="ofFkYoNgK9d1twdwnaEG-52">
          <mxGeometry x="12.5" y="40" width="57.5" height="40" as="geometry" />
        </mxCell>
        <mxCell id="y03_ueL-zCyggt_vuwU3-33" value="CLIENT SYSTEM COMPLIANCE" style="rounded=0;whiteSpace=wrap;html=1;shadow=0;glass=0;comic=0;strokeColor=#666666;fontSize=10;align=center;fontColor=#333333;recursiveResize=0;container=0;collapsible=0;fillColor=none;" vertex="1" parent="ofFkYoNgK9d1twdwnaEG-52">
          <mxGeometry x="12.499999999999886" y="90" width="60" height="40" as="geometry" />
        </mxCell>
        <mxCell id="y03_ueL-zCyggt_vuwU3-19" style="edgeStyle=elbowEdgeStyle;rounded=1;orthogonalLoop=1;jettySize=auto;elbow=vertical;html=1;fontSize=10;startArrow=classic;startFill=1;dashed=1;" edge="1" parent="_eyxtNxFQS-XamgkCKur-1" source="y03_ueL-zCyggt_vuwU3-21" target="y03_ueL-zCyggt_vuwU3-13">
          <mxGeometry relative="1" as="geometry">
            <Array as="points" />
          </mxGeometry>
        </mxCell>
        <mxCell id="y03_ueL-zCyggt_vuwU3-20" value="save &amp;amp; &lt;br&gt;restore" style="text;html=1;resizable=0;points=[];align=center;verticalAlign=middle;labelBackgroundColor=#ffffff;fontSize=8;" connectable="0" vertex="1" parent="y03_ueL-zCyggt_vuwU3-19">
          <mxGeometry x="0.6224" relative="1" as="geometry">
            <mxPoint x="-12.5" as="offset" />
          </mxGeometry>
        </mxCell>
        <mxCell id="G9RkhDbFaqI0d4GhjD9O-7" value="extends" style="edgeStyle=orthogonalEdgeStyle;rounded=0;orthogonalLoop=1;jettySize=auto;html=1;entryX=0.5;entryY=0;entryDx=0;entryDy=0;endArrow=block;endFill=0;" edge="1" parent="_eyxtNxFQS-XamgkCKur-1" source="G9RkhDbFaqI0d4GhjD9O-6" target="G9RkhDbFaqI0d4GhjD9O-0">
          <mxGeometry x="0.5" relative="1" as="geometry">
            <mxPoint x="760" y="330" as="targetPoint" />
            <mxPoint as="offset" />
          </mxGeometry>
        </mxCell>
        <mxCell id="G9RkhDbFaqI0d4GhjD9O-3" value="Automation" style="rounded=1;whiteSpace=wrap;html=1;shadow=0;glass=0;comic=0;strokeColor=#666666;fillColor=none;fontSize=12;align=left;fontColor=#333333;recursiveResize=0;container=1;collapsible=0;verticalAlign=top;spacing=2;spacingTop=-5;absoluteArcSize=1;strokeWidth=2;fontStyle=1" vertex="1" parent="_eyxtNxFQS-XamgkCKur-1">
          <mxGeometry x="360" y="120" width="320" height="70" as="geometry" />
        </mxCell>
        <mxCell id="G9RkhDbFaqI0d4GhjD9O-8" value="uses" style="edgeStyle=orthogonalEdgeStyle;rounded=0;orthogonalLoop=1;jettySize=auto;html=1;entryX=0;entryY=0.5;entryDx=0;entryDy=0;endArrow=open;endFill=0;" edge="1" parent="G9RkhDbFaqI0d4GhjD9O-3" source="G9RkhDbFaqI0d4GhjD9O-2" target="G9RkhDbFaqI0d4GhjD9O-6">
          <mxGeometry relative="1" as="geometry" />
        </mxCell>
        <mxCell id="G9RkhDbFaqI0d4GhjD9O-2" value="Deployment Pipeline" style="rounded=0;whiteSpace=wrap;html=1;shadow=0;glass=0;comic=0;strokeColor=#CCCCCC;fillColor=none;fontSize=10;align=center;fontColor=#333333;recursiveResize=0;container=1;collapsible=0;" vertex="1" parent="G9RkhDbFaqI0d4GhjD9O-3">
          <mxGeometry x="19.999999999999886" y="20" width="60" height="40" as="geometry" />
        </mxCell>
        <mxCell id="G9RkhDbFaqI0d4GhjD9O-6" value="Secured&lt;br&gt;Configuration" style="rounded=0;whiteSpace=wrap;html=1;shadow=0;glass=0;comic=0;strokeColor=#CCCCCC;fillColor=none;fontSize=10;align=center;fontColor=#333333;recursiveResize=0;container=1;collapsible=0;" vertex="1" parent="G9RkhDbFaqI0d4GhjD9O-3">
          <mxGeometry x="159.9999999999999" y="20" width="60" height="40" as="geometry" />
        </mxCell>
        <mxCell id="G9RkhDbFaqI0d4GhjD9O-9" value="to deploy to" style="edgeStyle=orthogonalEdgeStyle;rounded=0;orthogonalLoop=1;jettySize=auto;html=1;endArrow=open;endFill=0;" edge="1" parent="_eyxtNxFQS-XamgkCKur-1" source="G9RkhDbFaqI0d4GhjD9O-2">
          <mxGeometry relative="1" as="geometry">
            <mxPoint x="410" y="200" as="targetPoint" />
          </mxGeometry>
        </mxCell>
        <mxCell id="G9RkhDbFaqI0d4GhjD9O-10" value="Policy" style="rounded=1;whiteSpace=wrap;html=1;shadow=0;glass=0;comic=0;strokeColor=#666666;fillColor=none;fontSize=12;align=left;fontColor=#333333;recursiveResize=0;container=1;collapsible=0;verticalAlign=top;spacing=2;spacingTop=-5;absoluteArcSize=1;strokeWidth=2;fontStyle=1" vertex="1" parent="_eyxtNxFQS-XamgkCKur-1">
          <mxGeometry x="120" y="120" width="230" height="70" as="geometry" />
        </mxCell>
        <mxCell id="G9RkhDbFaqI0d4GhjD9O-16" style="edgeStyle=orthogonalEdgeStyle;rounded=0;orthogonalLoop=1;jettySize=auto;html=1;entryX=1;entryY=0.5;entryDx=0;entryDy=0;endArrow=block;endFill=0;" edge="1" parent="G9RkhDbFaqI0d4GhjD9O-10" source="G9RkhDbFaqI0d4GhjD9O-12" target="G9RkhDbFaqI0d4GhjD9O-15">
          <mxGeometry relative="1" as="geometry" />
        </mxCell>
        <mxCell id="G9RkhDbFaqI0d4GhjD9O-12" value="Automation of Policy" style="rounded=0;whiteSpace=wrap;html=1;shadow=0;glass=0;comic=0;strokeColor=#CCCCCC;fillColor=none;fontSize=10;align=center;fontColor=#333333;recursiveResize=0;container=1;collapsible=0;" vertex="1" parent="G9RkhDbFaqI0d4GhjD9O-10">
          <mxGeometry x="159.9999999999999" y="20" width="60" height="40" as="geometry" />
        </mxCell>
        <mxCell id="G9RkhDbFaqI0d4GhjD9O-15" value="Cloud Security Policies" style="rounded=0;whiteSpace=wrap;html=1;shadow=0;glass=0;comic=0;strokeColor=#CCCCCC;fillColor=none;fontSize=10;align=center;fontColor=#333333;recursiveResize=0;container=1;collapsible=0;" vertex="1" parent="G9RkhDbFaqI0d4GhjD9O-10">
          <mxGeometry x="19.999999999999886" y="20" width="60" height="40" as="geometry" />
        </mxCell>
        <mxCell id="G9RkhDbFaqI0d4GhjD9O-14" style="edgeStyle=orthogonalEdgeStyle;rounded=0;orthogonalLoop=1;jettySize=auto;html=1;endArrow=open;endFill=0;" edge="1" parent="_eyxtNxFQS-XamgkCKur-1" source="G9RkhDbFaqI0d4GhjD9O-12" target="y03_ueL-zCyggt_vuwU3-0">
          <mxGeometry relative="1" as="geometry" />
        </mxCell>
        <mxCell id="_eyxtNxFQS-XamgkCKur-63" value="Title/Page" style="" visible="0" parent="_eyxtNxFQS-XamgkCKur-0" />
        <mxCell id="_eyxtNxFQS-XamgkCKur-4" value="" style="group;fontSize=10;" vertex="1" connectable="0" parent="_eyxtNxFQS-XamgkCKur-63">
          <mxGeometry x="120" y="120" width="560" height="45" as="geometry" />
        </mxCell>
        <mxCell id="_eyxtNxFQS-XamgkCKur-5" value="&lt;font style=&quot;font-size: 12px;&quot;&gt;Base Logical Module - Deployment - Environments&lt;/font&gt;" style="text;strokeColor=none;fillColor=none;html=1;fontSize=12;fontStyle=1;verticalAlign=middle;align=left;shadow=0;glass=0;comic=0;opacity=30;fontColor=#808080;" vertex="1" parent="_eyxtNxFQS-XamgkCKur-4">
          <mxGeometry width="560" height="40" as="geometry" />
        </mxCell>
        <mxCell id="_eyxtNxFQS-XamgkCKur-6" value="" style="line;strokeWidth=2;html=1;shadow=0;glass=0;comic=0;fillColor=none;fontSize=10;fontColor=#CCCCCC;labelBackgroundColor=none;strokeColor=#CCCCCC;" vertex="1" parent="_eyxtNxFQS-XamgkCKur-4">
          <mxGeometry y="35" width="560" height="10" as="geometry" />
        </mxCell>
        <mxCell id="DQz-XnvvL6y7xuYPgWyo-0" value="Title/Diagram" parent="_eyxtNxFQS-XamgkCKur-0" />
        <mxCell id="DQz-XnvvL6y7xuYPgWyo-1" value="&lt;font style=&quot;font-size: 12px ; font-weight: normal&quot;&gt;&lt;i&gt;Diagram: Base System Logical Module - Deployment - Environments&lt;/i&gt;&lt;/font&gt;" style="text;strokeColor=none;fillColor=none;html=1;fontSize=12;fontStyle=1;verticalAlign=middle;align=left;shadow=0;glass=0;comic=0;opacity=30;fontColor=#808080;" vertex="1" parent="DQz-XnvvL6y7xuYPgWyo-0">
          <mxGeometry x="120" y="720" width="520" height="40" as="geometry" />
        </mxCell>
        <mxCell id="_eyxtNxFQS-XamgkCKur-64" value="Description" style="" parent="_eyxtNxFQS-XamgkCKur-0" />
        <mxCell id="_eyxtNxFQS-XamgkCKur-65" value="Boxes" style="" parent="_eyxtNxFQS-XamgkCKur-0" />
        <mxCell id="_eyxtNxFQS-XamgkCKur-66" value="Requirements" style="" parent="_eyxtNxFQS-XamgkCKur-0" />
      </root>
    </mxGraphModel>
  </diagram>
</mxfile>
